<?xml version="1.0" standalone="no"?>
<svg version="1.2" xmlns="http://www.w3.org/2000/svg" xmlns:xlink="http://www.w3.org/1999/xlink" overflow="visible" preserveAspectRatio="none" viewBox="0 0 146 53" width="146" height="53"><g transform="translate(0, 0)"><defs><path id="path-1633670401415611" d="M0 0 C0 0 146 0 146 0 C146 0 146 53.000000000000036 146 53.000000000000036 C146 53.000000000000036 0 53.000000000000036 0 53.000000000000036 C0 53.000000000000036 0 0 0 0 Z"/><linearGradient id="gradient-1633670401519657" x1="0%" y1="50%" x2="100%" y2="50%"><stop offset="79%" stop-color="rgb(255,255,255)" stop-opacity="1"/><stop offset="100%" stop-color="rgba(255,255,255,0)" stop-opacity="0"/></linearGradient></defs><g transform="translate(0, 0)"><path d="M0 0 C0 0 146 0 146 0 C146 0 146 53.000000000000036 146 53.000000000000036 C146 53.000000000000036 0 53.000000000000036 0 53.000000000000036 C0 53.000000000000036 0 0 0 0 Z" style="stroke: rgb(140, 140, 140); stroke-width: 0; stroke-linecap: butt; stroke-linejoin: miter; fill: url(&quot;#gradient-1633670401519657&quot;);"/></g></g></svg>